<?xml version="1.0" encoding="UTF-8"?>
<svg id="Capa_2" data-name="Capa 2" xmlns="http://www.w3.org/2000/svg" viewBox="0 0 1211.74 151.28">
  <defs>
    <style>
      .cls-1 {
        fill: #fff;
      }
    </style>
  </defs>
  <g id="CONCEPTS">
    <g>
      <g>
        <path class="cls-1" d="M280.69,149.09h-47.07V0h47.07c54.07,0,80.35,27.58,80.35,74.65s-26.27,74.43-80.35,74.43ZM270.84,114.94h14.45c26.93-.22,38.09-14.23,38.09-41.38s-11.17-40.06-38.09-40.5l-14.45-.22v82.1Z"/>
        <path class="cls-1" d="M406.13,105.74c3.5,8.98,10.95,13.57,22.33,13.57s21.45-3.5,31.31-12.04l7.01,31.53c-12.7,9.19-23.42,12.48-43.13,12.48-33.5,0-54.29-21.89-54.29-59.77s21.24-56.92,56.92-56.92c27.8,0,43.13,12.48,43.13,34.59,0,24.3-18.39,35.69-63.27,36.56ZM406.13,91.73c19.92,0,30.43-6.13,30.43-16.2,0-7.44-5.47-10.51-12.7-10.51-12.92,0-19.7,8.98-19.92,26.71h2.19Z"/>
        <path class="cls-1" d="M544.26,36.78h35.9l-32.62,112.31h-44l-33.5-112.31h39.63l17.51,75.31,17.08-75.31Z"/>
      </g>
      <g>
        <path class="cls-1" d="M96.55,151.28H0V2.19h37.22v116.03l59.33-1.09v34.15Z"/>
        <path class="cls-1" d="M159,125.89l-25.39,25.39-56.35-102.48,31.12-31.12,103.1,55.73-28.02,28.02-31.55-6.78,7.09,31.24Z"/>
      </g>
      <g>
        <path class="cls-1" d="M642.66,149.21h-35.1V8.6h35.1v51.62h42.74V8.6h35.1v140.61h-35.1v-56.78h-42.74v56.78Z"/>
        <path class="cls-1" d="M728.76,79.01c0-46.05,26.02-72.48,69.79-72.48s69.38,26.43,69.38,72.48-26.02,72.27-69.38,72.27-69.79-26.84-69.79-72.27ZM798.55,118.24c22.09,0,33.86-13.42,33.86-39.23s-11.77-39.44-33.86-39.44-34.28,13.42-34.28,39.44,11.77,39.23,34.28,39.23Z"/>
        <path class="cls-1" d="M880.95,89.54V8.6h35.1v73.71c0,24.36,4.96,34.48,21.27,34.48s21.27-10.12,21.27-34.48V8.6h35.1v80.94c0,42.33-16.73,61.74-56.37,61.74s-56.37-19.62-56.37-61.74Z"/>
        <path class="cls-1" d="M1070.5,105.64c0-7.64-7.85-13.42-30.15-19.82-27.46-7.64-36.96-20.44-36.96-38.61,0-26.64,18.38-40.68,55.13-40.68,17.96,0,32.42,3.3,49.35,11.56l-7.85,33.45c-16.52-7.64-28.29-10.53-41.09-10.53s-19.41,2.89-19.41,10.12c0,6.61,5.58,11.15,28.08,17.76,26.84,7.85,40.47,20.44,40.47,41.3,0,24.36-16.73,41.09-60.71,41.09-19.62,0-30.77-3.3-45.43-10.53l4.54-38.2c13.63,9.91,23.13,14.25,41.92,14.25,11.98,0,22.09-2.48,22.09-11.15Z"/>
        <path class="cls-1" d="M1211.74,149.21h-95.4V8.6h91.06v31.8l-55.96-1.03v21.27h43.57v31.38h-43.57v26.02l60.29-1.03v32.21Z"/>
      </g>
    </g>
  </g>
</svg>